<?xml version="1.0" standalone="no"?>
<!DOCTYPE svg PUBLIC "-//W3C//DTD SVG 20010904//EN"
 "http://www.w3.org/TR/2001/REC-SVG-20010904/DTD/svg10.dtd">
<svg version="1.0" xmlns="http://www.w3.org/2000/svg"
 width="500.000000pt" height="500.000000pt" viewBox="0 0 500.000000 500.000000"
 preserveAspectRatio="xMidYMid meet">

<g transform="translate(0.000000,500.000000) scale(0.100000,-0.100000)"
fill="#000000" stroke="none">
<path d="M2540 3314 c-69 -8 -236 -17 -372 -20 -235 -6 -290 -13 -215 -29 79
-17 107 -49 136 -155 12 -46 15 -176 18 -794 4 -731 -1 -890 -29 -980 -17 -56
-67 -102 -117 -111 -101 -17 -24 -25 239 -25 257 0 339 8 242 24 -46 7 -86 36
-108 79 -40 77 -43 146 -44 1058 l0 877 78 21 c128 34 218 44 337 37 202 -11
339 -62 445 -167 241 -237 181 -707 -110 -854 -119 -60 -235 -54 -410 22 -122
53 -178 63 -215 39 -20 -13 -25 -25 -25 -57 0 -56 24 -86 133 -165 161 -118
215 -181 439 -520 126 -190 223 -325 251 -352 l47 -42 175 0 c166 0 219 9 138
25 -142 26 -263 155 -506 541 -115 182 -190 243 -432 350 -190 84 -225 109
-225 164 0 65 50 65 193 -1 135 -61 200 -79 292 -79 330 1 584 240 585 551 0
81 -30 203 -67 272 -69 128 -216 233 -388 278 -106 27 -316 33 -485 13z"/>
<path d="M1725 913 c-19 -4 -20 -10 -17 -140 2 -104 0 -138 -10 -144 -9 -6 -4
-9 15 -9 l27 0 0 144 c0 106 3 146 13 149 14 6 1 6 -28 0z"/>
<path d="M3068 905 c58 -25 66 -104 15 -145 -20 -15 -22 -20 -9 -20 31 0 66
46 66 87 -1 53 -38 94 -87 93 -11 -1 -6 -6 15 -15z"/>
<path d="M3600 914 c61 -26 77 -87 35 -129 -31 -32 -15 -33 21 -2 51 45 28
118 -41 131 -16 4 -23 3 -15 0z"/>
<path d="M1108 878 c11 -18 39 -76 63 -128 51 -112 48 -108 58 -91 12 19 -103
251 -125 251 -14 0 -13 -4 4 -32z"/>
<path d="M1320 777 c0 -90 -4 -137 -12 -145 -9 -9 -3 -12 28 -12 24 0 34 3 26
9 -10 6 -12 40 -10 144 3 125 1 137 -14 137 -16 0 -18 -13 -18 -133z"/>
<path d="M1455 888 c-33 -25 -55 -75 -55 -120 1 -62 55 -148 94 -148 6 0 0 7
-13 16 -32 23 -51 73 -51 134 0 54 10 81 43 118 26 28 18 28 -18 0z"/>
<path d="M1589 889 c30 -29 41 -61 41 -125 0 -60 -18 -104 -52 -128 -12 -9
-18 -16 -12 -16 21 0 66 43 80 76 17 40 18 92 3 131 -11 31 -57 83 -73 83 -5
0 0 -9 13 -21z"/>
<path d="M1853 890 c28 -23 47 -74 47 -130 0 -43 -32 -114 -57 -129 -10 -6
-13 -11 -7 -11 17 0 63 46 74 75 15 39 12 122 -5 155 -15 28 -51 60 -69 60 -5
0 3 -9 17 -20z"/>
<path d="M1978 780 c3 -92 0 -135 -8 -146 -10 -11 -8 -14 11 -14 24 0 24 1 22
87 -1 49 -2 114 -3 146 0 39 -4 57 -12 57 -10 0 -12 -31 -10 -130z"/>
<path d="M2120 903 c8 -3 21 -10 28 -16 8 -7 12 -5 12 7 0 11 -8 16 -27 15
-16 0 -22 -3 -13 -6z"/>
<path d="M2200 884 c6 -14 10 -67 10 -119 0 -52 -4 -105 -10 -119 -8 -23 -7
-26 10 -26 19 0 20 7 20 129 0 71 3 136 6 145 5 12 0 16 -20 16 -23 0 -25 -2
-16 -26z"/>
<path d="M2530 884 c13 -32 13 -189 1 -232 -9 -31 -9 -32 21 -32 25 0 28 2 18
14 -8 11 -11 54 -8 146 3 129 3 130 -19 130 -20 0 -21 -3 -13 -26z"/>
<path d="M2688 779 c81 -166 102 -155 24 12 -38 79 -61 119 -72 119 -12 0 -1
-31 48 -131z"/>
<path d="M2850 771 c0 -102 -3 -141 -12 -144 -7 -3 4 -6 26 -6 32 -1 37 1 27
13 -8 10 -11 55 -9 145 3 119 1 131 -14 131 -16 0 -18 -13 -18 -139z"/>
<path d="M2948 779 c2 -90 -1 -135 -9 -145 -10 -12 -5 -14 27 -13 22 0 33 3
27 6 -10 3 -13 42 -13 144 0 126 -2 139 -17 139 -16 0 -18 -12 -15 -131z"/>
<path d="M3228 883 c-14 -16 -31 -38 -37 -50 -15 -30 -14 -97 3 -137 14 -33
59 -76 80 -76 6 0 0 7 -12 16 -71 50 -74 223 -5 263 10 6 13 11 7 11 -5 0 -22
-12 -36 -27z"/>
<path d="M3367 889 c61 -68 56 -208 -11 -254 -11 -8 -15 -15 -9 -15 23 0 71
58 84 99 21 70 -9 154 -66 183 -19 10 -19 9 2 -13z"/>
<path d="M3488 773 c2 -104 0 -138 -10 -144 -8 -6 2 -8 27 -8 22 0 34 3 28 6
-10 3 -13 42 -13 144 0 126 -2 139 -17 139 -16 0 -18 -12 -15 -137z"/>
<path d="M3720 894 c0 -12 4 -14 13 -7 6 6 19 13 27 16 9 3 3 6 -12 6 -20 1
-28 -4 -28 -15z"/>
<path d="M3810 777 c0 -90 -4 -137 -12 -145 -9 -9 -5 -12 18 -12 l29 0 -3 145
c-2 119 -6 145 -18 145 -11 0 -14 -24 -14 -133z"/>
<path d="M3890 903 c8 -3 21 -10 28 -16 8 -7 12 -5 12 7 0 11 -8 16 -27 15
-16 0 -22 -3 -13 -6z"/>
<path d="M2021 797 c3 -4 21 -13 41 -21 28 -12 39 -13 52 -3 14 10 13 12 -11
13 -16 0 -41 4 -58 9 -16 4 -28 5 -24 2z"/>
<path d="M3606 684 c36 -50 51 -64 71 -64 l26 0 -26 20 c-14 11 -35 35 -46 53
-11 19 -32 39 -45 45 -22 10 -19 3 20 -54z"/>
<path d="M1101 670 c0 -15 -6 -31 -13 -38 -9 -9 -5 -12 22 -12 31 0 32 1 18
18 -9 9 -18 26 -21 37 -4 16 -5 15 -6 -5z"/>
<path d="M2631 663 c-1 -17 -7 -34 -13 -36 -7 -3 2 -6 21 -6 26 -1 31 2 23 12
-6 7 -16 24 -21 38 -9 23 -10 23 -10 -8z"/>
<path d="M2148 649 c-2 -6 -19 -14 -38 -19 l-35 -8 43 -1 c36 -1 42 2 42 19 0
22 -6 26 -12 9z"/>
<path d="M2373 649 c-6 -6 -26 -15 -45 -19 -32 -8 -31 -8 15 -9 41 -1 47 2 47
19 0 23 -2 24 -17 9z"/>
</g>
</svg>
